<?xml version="1.0" encoding="UTF-8" standalone="no"?>
<!-- Created with Inkscape (http://www.inkscape.org/) -->

<svg
   width="400mm"
   height="200mm"
   viewBox="0 0 400 200"
   version="1.1"
   id="svg1"
   inkscape:version="1.4.3 (0d15f75042, 2025-12-25)"
   sodipodi:docname="logo_context.svg"
   xmlns:inkscape="http://www.inkscape.org/namespaces/inkscape"
   xmlns:sodipodi="http://sodipodi.sourceforge.net/DTD/sodipodi-0.dtd"
   xmlns="http://www.w3.org/2000/svg"
   xmlns:svg="http://www.w3.org/2000/svg">
  <sodipodi:namedview
     id="namedview1"
     pagecolor="#ffffff"
     bordercolor="#000000"
     borderopacity="0.25"
     inkscape:showpageshadow="2"
     inkscape:pageopacity="0.0"
     inkscape:pagecheckerboard="0"
     inkscape:deskcolor="#d1d1d1"
     inkscape:document-units="mm"
     inkscape:zoom="0.77453931"
     inkscape:cx="522.89147"
     inkscape:cy="497.06967"
     inkscape:window-width="3440"
     inkscape:window-height="1371"
     inkscape:window-x="0"
     inkscape:window-y="0"
     inkscape:window-maximized="1"
     inkscape:current-layer="layer1" />
  <defs
     id="defs1" />
  <rect
     style="fill:#f7f7f9;fill-opacity:1;stroke:none;stroke-width:4.53685;stroke-linecap:round;stroke-linejoin:round;stroke-dasharray:none;stroke-opacity:1"
     id="rect7"
     width="393.68735"
     height="194.24574"
     x="3.1563263"
     y="2.8771286"
     rx="5.558691"
     ry="5.7857141"
     inkscape:label="background" />
  <g
     inkscape:label="text"
     inkscape:groupmode="layer"
     id="layer1">
    <path
       style="font-style:italic;font-weight:300;font-size:90.3111px;font-family:'IBM Plex Sans';-inkscape-font-specification:'IBM Plex Sans Light Italic';fill:#0c0f0a;fill-opacity:1;stroke:#0c0f0a;stroke-linecap:round;stroke-linejoin:round"
       d="m 146.77184,115.70461 q -7.49582,0 -12.82418,-2.70933 -5.23804,-2.70933 -8.128,-8.128 l 4.064,-2.88995 q 2.70934,4.60586 6.77334,6.86364 4.064,2.16747 10.20515,2.16747 4.42524,0 7.67644,-1.17405 3.2512,-1.26435 5.32836,-3.2512 2.16746,-2.07715 3.16089,-4.78649 1.08373,-2.799642 1.08373,-5.960532 0,-4.33493 -2.4384,-6.95395 -2.34809,-2.61902 -7.67644,-3.79307 l -6.77334,-1.44498 q -12.91448,-2.889951 -12.91448,-14.901327 0,-3.702755 1.35466,-7.044265 1.35467,-3.341511 3.97369,-5.779911 2.61902,-2.52871 6.5024,-3.973688 Q 150.11335,50.5 155.17077,50.5 q 7.49582,0 12.10169,2.52871 4.69617,2.528711 7.49582,6.863644 l -3.88338,3.070577 q -2.52871,-3.883377 -6.32178,-5.77991 -3.70275,-1.986844 -9.66328,-1.986844 -7.49582,0 -11.46951,3.702755 -3.88338,3.612443 -3.88338,9.572976 0,4.425244 2.34809,7.044265 2.34809,2.528711 7.49582,3.702755 l 6.68302,1.444978 q 6.5024,1.444977 9.84391,5.238042 3.43182,3.70276 3.43182,9.7536 0,4.15431 -1.44497,7.857072 -1.44498,3.61244 -4.33494,6.32177 -2.79964,2.70933 -7.04426,4.33493 -4.15431,1.53529 -9.7536,1.53529 z m 32.69269,-1.08373 12.64355,-63.037147 h 35.94382 l -0.99342,4.696177 h -30.61546 l -4.8768,24.022751 h 28.44799 l -0.90311,4.605867 H 190.66311 L 185.696,109.9247 h 31.51857 l -0.90311,4.69618 z m 89.58856,0 -3.07057,-19.597512 h -26.09991 l -10.20515,19.597512 h -5.59929 l 33.4151,-63.037147 h 6.95396 l 9.93422,63.037147 z m -8.85048,-57.889415 h -0.36125 l -17.52035,33.686043 h 23.11964 z m 30.34447,57.889415 h -5.23804 l 12.64355,-63.037147 h 22.57778 q 7.58613,0 11.19857,4.15431 3.61245,4.064 3.61245,10.295465 0,4.064 -1.17405,7.676443 -1.17404,3.522133 -3.43182,6.231466 -2.16746,2.709333 -5.50898,4.425241 -3.25119,1.71591 -7.49582,2.07716 l 10.02454,28.177062 h -5.59929 l -9.66329,-27.906132 h -16.34631 z m 25.28711,-32.511997 q 5.41867,0 8.76018,-2.709333 3.34151,-2.799644 4.33493,-7.676443 0.63218,-2.889955 0.8128,-4.15431 0.18062,-1.354667 0.18062,-2.348089 0,-3.883377 -2.25778,-6.412088 -2.25777,-2.52871 -7.58613,-2.52871 h -17.88159 l -5.05743,25.828973 z"
       id="text4"
       inkscape:label="name"
       aria-label="SEAR" />
    <path
       style="font-weight:500;font-size:19.7556px;font-family:'IBM Plex Sans';-inkscape-font-specification:'IBM Plex Sans Medium';stroke-width:0.264583"
       d="m 140.07708,145.41748 q -1.71874,0 -2.94358,-0.63218 -1.22485,-0.65194 -2.0941,-1.69899 l 1.56069,-1.44215 q 0.71121,0.889 1.58045,1.34338 0.889,0.45438 2.01507,0.45438 1.32363,0 1.99532,-0.59267 0.67169,-0.61243 0.67169,-1.60021 0,-0.5334 -0.19756,-0.92851 -0.19755,-0.39511 -0.67169,-0.65193 -0.47413,-0.25683 -1.26436,-0.41487 l -1.22484,-0.21731 q -1.34338,-0.25683 -2.25214,-0.75072 -0.889,-0.49389 -1.34338,-1.28411 -0.45438,-0.80998 -0.45438,-1.89654 0,-1.22484 0.59267,-2.11385 0.59267,-0.889 1.67922,-1.36313 1.10632,-0.47414 2.56823,-0.47414 1.56069,0 2.70652,0.55316 1.14582,0.5334 1.93605,1.56069 l -1.5607,1.38289 q -0.5334,-0.69144 -1.30386,-1.10631 -0.77047,-0.41487 -1.9163,-0.41487 -1.18533,0 -1.83727,0.47414 -0.63218,0.47413 -0.63218,1.38289 0,0.57291 0.23707,0.94827 0.23707,0.37535 0.7112,0.61242 0.49389,0.23707 1.22485,0.37536 l 1.22485,0.25682 q 1.38289,0.25682 2.27189,0.77047 0.889,0.51364 1.30387,1.30387 0.43462,0.77047 0.43462,1.87678 0,1.28411 -0.59267,2.25214 -0.59266,0.94827 -1.71873,1.50142 -1.12607,0.53341 -2.70652,0.53341 z m 11.59656,0 q -1.46192,0 -2.52872,-0.65194 -1.0668,-0.67169 -1.65947,-1.87678 -0.57291,-1.20509 -0.57291,-2.84481 0,-1.63971 0.57291,-2.82505 0.57291,-1.20509 1.61996,-1.87678 1.04704,-0.67169 2.50896,-0.67169 1.52118,0 2.52872,0.69145 1.02729,0.67169 1.54093,1.83727 0.51365,1.16558 0.51365,2.58798 v 0.80998 h -7.033 v 0.33584 q 0,1.18534 0.69145,1.95581 0.7112,0.75071 2.01507,0.75071 0.94827,0 1.6002,-0.41487 0.65194,-0.41486 1.08656,-1.12607 l 1.28412,1.24461 q -0.59267,0.92851 -1.67923,1.50142 -1.0668,0.57292 -2.4892,0.57292 z m -0.0198,-9.06782 q -0.75071,0 -1.32363,0.3556 -0.55315,0.33584 -0.86924,0.94826 -0.29634,0.59267 -0.29634,1.3829 v 0.13829 h 4.78086 v -0.19756 q 0,-0.79022 -0.27658,-1.38289 -0.27658,-0.59267 -0.79022,-0.90876 -0.51365,-0.33584 -1.22485,-0.33584 z m 10.9051,9.06782 q -2.23239,0 -3.45723,-1.44216 -1.22485,-1.46192 -1.22485,-3.93137 0,-2.46945 1.22485,-3.91161 1.22484,-1.46191 3.45723,-1.46191 1.54093,0 2.52871,0.69145 0.98778,0.69144 1.42241,1.83727 l -1.77801,0.82973 q -0.21731,-0.7112 -0.77047,-1.12607 -0.55315,-0.43462 -1.40264,-0.43462 -1.18534,0 -1.79776,0.75071 -0.61243,0.73096 -0.61243,1.91629 v 1.81752 q 0,1.18534 0.61243,1.93605 0.61242,0.75071 1.79776,0.75071 0.92851,0 1.50142,-0.45438 0.57291,-0.47413 0.90876,-1.2446 l 1.61996,0.86925 q -0.49389,1.26435 -1.52118,1.93605 -1.02729,0.67169 -2.50896,0.67169 z m 12.30775,-0.23707 v -1.69898 h -0.0988 q -0.27657,0.77047 -0.94827,1.36313 -0.65193,0.57292 -1.93604,0.57292 -1.5607,0 -2.4497,-1.0273 -0.889,-1.04704 -0.889,-2.94358 v -6.5391 h 2.15336 v 6.26252 q 0,1.18534 0.47413,1.81752 0.49389,0.61242 1.48167,0.61242 0.57292,0 1.06681,-0.19756 0.51364,-0.19755 0.82973,-0.59266 0.31609,-0.39512 0.31609,-0.98778 v -6.91446 h 2.15336 v 10.27291 z m 7.38859,0 h -2.15336 V 134.9075 h 2.15336 v 2.03482 h 0.0988 q 0.15805,-0.51364 0.49389,-0.96802 0.3556,-0.47414 0.92851,-0.77047 0.57292,-0.29633 1.40265,-0.29633 h 0.57291 v 2.07433 h -0.84949 q -0.84949,0 -1.44216,0.19756 -0.59266,0.19756 -0.90875,0.55316 -0.29634,0.3556 -0.29634,0.889 z m 6.49958,-12.11018 q -0.67169,0 -0.98778,-0.31609 -0.29633,-0.31609 -0.29633,-0.80998 v -0.33585 q 0,-0.49389 0.29633,-0.80998 0.31609,-0.31609 0.98778,-0.31609 0.67169,0 0.96803,0.31609 0.29633,0.31609 0.29633,0.80998 v 0.33585 q 0,0.49389 -0.29633,0.80998 -0.29634,0.31609 -0.96803,0.31609 z m -1.08655,12.11018 V 134.9075 h 2.15336 v 10.27291 z m 9.95681,0 h -1.87679 q -1.10631,0 -1.69898,-0.59267 -0.57291,-0.61242 -0.57291,-1.65947 v -6.26253 h -1.6002 v -1.75824 h 0.86924 q 0.5334,0 0.73096,-0.23707 0.21731,-0.23707 0.21731,-0.77047 v -1.79776 h 1.93605 v 2.8053 h 2.15336 v 1.75824 h -2.15336 v 6.75642 h 1.99532 z m 6.73665,-4.2277 2.05458,-6.04521 h 2.07434 l -4.32648,12.30774 q -0.23706,0.69144 -0.57291,1.10631 -0.31609,0.43462 -0.82973,0.61242 -0.49389,0.19756 -1.30387,0.19756 h -1.24461 v -1.75825 h 1.7385 l 0.59266,-1.73849 -3.7338,-10.72729 h 2.15336 l 2.05458,6.04521 0.59267,2.23238 h 0.0988 z m 21.63239,4.2277 h -2.33117 l -1.20509,-3.73381 h -5.15621 l -1.22485,3.73381 h -2.25213 l 4.70183,-13.78941 h 2.78554 z m -4.08941,-5.6501 -1.36314,-4.08941 -0.63218,-1.99532 h -0.0988 l -0.63218,1.99532 -1.36313,4.08941 z m 8.45539,5.6501 h -2.23239 V 131.391 h 5.92668 q 1.26436,0 2.15336,0.51365 0.90876,0.51364 1.3829,1.44215 0.47413,0.92852 0.47413,2.19288 0,1.2446 -0.47413,2.17311 -0.47414,0.92851 -1.3829,1.46192 -0.889,0.51364 -2.15336,0.51364 h -3.69429 z m 0,-11.83361 v 4.38575 h 3.556 q 0.55316,0 0.94827,-0.19756 0.41487,-0.19755 0.63218,-0.57291 0.21731,-0.39511 0.21731,-0.94827 v -0.94827 q 0,-0.57291 -0.21731,-0.94827 -0.21731,-0.37535 -0.63218,-0.57291 -0.39511,-0.19756 -0.94827,-0.19756 z m 15.52792,11.83361 h -5.9662 v -1.81752 h 1.85703 v -10.15438 h -1.85703 V 131.391 h 5.9662 v 1.81751 h -1.87679 v 10.15438 h 1.87679 z m 7.84296,0 v -8.51467 h -1.56069 v -1.75824 h 1.56069 v -1.69899 q 0,-1.2446 0.65194,-1.93604 0.67169,-0.71121 1.9558,-0.71121 h 1.69898 v 1.75825 h -2.15336 v 2.58799 h 2.15336 v 1.75824 h -2.15336 v 8.51467 z m 10.11488,0.23707 q -1.44216,0 -2.50896,-0.65194 -1.04705,-0.67169 -1.63971,-1.87678 -0.57292,-1.20509 -0.57292,-2.84481 0,-1.63971 0.57292,-2.8448 0.59266,-1.2051 1.63971,-1.85703 1.0668,-0.67169 2.50896,-0.67169 1.4224,0 2.46945,0.67169 1.0668,0.65193 1.63972,1.85703 0.59266,1.20509 0.59266,2.8448 0,1.63972 -0.59266,2.84481 -0.57292,1.20509 -1.63972,1.87678 -1.04705,0.65194 -2.46945,0.65194 z m 0,-1.79776 q 1.10632,0 1.75825,-0.67169 0.67169,-0.69145 0.67169,-2.03483 v -1.73849 q 0,-1.34338 -0.67169,-2.01508 -0.65193,-0.69144 -1.75825,-0.69144 -1.08656,0 -1.778,0.69144 -0.67169,0.6717 -0.67169,2.01508 v 1.73849 q 0,1.34338 0.67169,2.03483 0.69144,0.67169 1.778,0.67169 z m 9.24562,1.56069 h -2.15336 V 134.9075 h 2.15336 v 2.03482 h 0.0988 q 0.15804,-0.51364 0.49389,-0.96802 0.3556,-0.47414 0.92851,-0.77047 0.57291,-0.29633 1.40265,-0.29633 h 0.57291 v 2.07433 h -0.84949 q -0.84949,0 -1.44216,0.19756 -0.59267,0.19756 -0.90875,0.55316 -0.29634,0.3556 -0.29634,0.889 z m 12.46578,-5.55133 v 5.55133 h -2.23238 V 131.391 h 5.94644 q 1.2446,0 2.11384,0.49389 0.88901,0.49389 1.3829,1.4224 0.49389,0.90876 0.49389,2.21263 0,1.44216 -0.69145,2.46945 -0.67169,1.00754 -1.97556,1.40265 l 2.96334,5.78839 h -2.48921 l -2.74602,-5.55133 z m 0,-1.89653 h 3.55601 q 0.55316,0 0.94827,-0.19756 0.41487,-0.19755 0.63218,-0.57291 0.21731,-0.39511 0.21731,-0.94827 v -0.94827 q 0,-0.57291 -0.21731,-0.94827 -0.21731,-0.37535 -0.63218,-0.57291 -0.39511,-0.19756 -0.94827,-0.19756 h -3.55601 z m 21.61264,7.44786 h -2.33116 l -1.2051,-3.73381 h -5.15621 l -1.22484,3.73381 h -2.25214 l 4.70183,-13.78941 h 2.78554 z m -4.08941,-5.6501 -1.36314,-4.08941 -0.63218,-1.99532 h -0.0988 l -0.63218,1.99532 -1.36313,4.08941 z m 10.97613,5.88717 q -1.79776,0 -3.10163,-0.79023 -1.30387,-0.80998 -1.99532,-2.37067 -0.69144,-1.56069 -0.69144,-3.89185 0,-2.31141 0.69144,-3.91161 0.69145,-1.61996 1.99532,-2.4497 1.30387,-0.84949 3.10163,-0.84949 1.778,0 2.98309,0.79023 1.22485,0.79022 1.93605,2.33116 l -1.87678,1.02729 q -0.3556,-0.98778 -1.10631,-1.56069 -0.73096,-0.59267 -1.93605,-0.59267 -1.60021,0 -2.50896,1.10631 -0.90876,1.10632 -0.90876,3.02261 v 2.11385 q 0,1.89654 0.90876,2.96334 0.90875,1.0668 2.50896,1.0668 1.22484,0 2.01507,-0.63218 0.79022,-0.65193 1.16558,-1.65947 l 1.79776,1.08656 q -0.69145,1.48167 -1.95581,2.35091 -1.2446,0.8495 -3.0226,0.8495 z m 9.58147,-0.23707 h -2.23238 V 131.391 h 8.61344 v 1.97556 h -6.38106 v 3.85234 h 5.66986 v 1.97556 h -5.66986 z"
       id="text1"
       inkscape:label="full_name"
       aria-label="Security API for RACF" />
  </g>
  <g
     inkscape:groupmode="layer"
     id="layer2"
     inkscape:label="key"
     transform="translate(0,-3.9242749)">
    <rect
       style="fill:#fadc0d;fill-opacity:1;stroke:none;stroke-width:4;stroke-linecap:round;stroke-linejoin:round;stroke-dasharray:none;stroke-opacity:1"
       id="rect6"
       width="24.558807"
       height="22.191694"
       x="46.750507"
       y="64.503868"
       rx="2"
       ry="2" />
    <rect
       style="fill:none;stroke:#0c0f0a;stroke-width:4;stroke-linecap:round;stroke-linejoin:round;stroke-dasharray:none;stroke-opacity:1"
       id="rect1"
       width="50"
       height="50"
       x="45.66375"
       y="37.8675"
       rx="2"
       ry="2" />
    <path
       style="fill:none;stroke:#0c0f0a;stroke-width:4;stroke-linecap:round;stroke-linejoin:round;stroke-dasharray:none;stroke-opacity:1"
       d="M 70.905962,38.013042 46.081116,62.837887 h 24.824845 v 24.453299"
       id="path1" />
    <path
       style="font-weight:bold;font-size:25.4px;font-family:'IBM Plex Sans';-inkscape-font-specification:'IBM Plex Sans Bold';stroke:#0c0f0a;stroke-width:0.1;stroke-linecap:round;stroke-linejoin:round"
       d="m 52.390273,81.829536 v -2.9718 l 6.6294,-7.442199 h -6.4008 v -2.921 h 10.7696 v 2.9464 l -6.6548,7.467599 h 6.8326 v 2.921 z"
       id="text2"
       aria-label="z" />
    <rect
       style="fill:#0c0f0a;fill-opacity:1;stroke:#0c0f0a;stroke-width:0.093233;stroke-linecap:round;stroke-linejoin:round;stroke-dasharray:none;stroke-opacity:1"
       id="rect2"
       width="4.9067669"
       height="84.002701"
       x="68.429626"
       y="87.931732"
       rx="0.43458501"
       ry="0.50004029" />
    <rect
       style="fill:#0c0f0a;fill-opacity:1;stroke:#0c0f0a;stroke-width:0.0762665;stroke-linecap:round;stroke-linejoin:round;stroke-dasharray:none;stroke-opacity:1"
       id="rect3"
       width="7.309185"
       height="22.921124"
       x="71.158272"
       y="144.71889"
       rx="0.28868914"
       ry="0.50370651" />
    <rect
       style="fill:#0c0f0a;fill-opacity:1;stroke:#0c0f0a;stroke-width:0.105605;stroke-linecap:round;stroke-linejoin:round;stroke-dasharray:none;stroke-opacity:1"
       id="rect4"
       width="14.894395"
       height="6.324028"
       x="76.399498"
       y="144.73355"
       rx="0.55811226"
       ry="0.49955723" />
    <rect
       style="fill:#0c0f0a;fill-opacity:1;stroke:#0c0f0a;stroke-width:0.0967353;stroke-linecap:round;stroke-linejoin:round;stroke-dasharray:none;stroke-opacity:1"
       id="rect4-5"
       width="12.480069"
       height="6.3328972"
       x="76.395065"
       y="153.09506"
       rx="0.4676443"
       ry="0.50025791" />
    <rect
       style="fill:#0c0f0a;fill-opacity:1;stroke:#0c0f0a;stroke-width:0.105605;stroke-linecap:round;stroke-linejoin:round;stroke-dasharray:none;stroke-opacity:1"
       id="rect4-5-2"
       width="14.894395"
       height="6.3240275"
       x="76.399498"
       y="161.30739"
       rx="0.5581122"
       ry="0.49955726" />
  </g>
</svg>
